# xmcd
# 
# Track frame offsets:
#     187
#     72947
#     147275
# 
# Disc length: 2405
# 
# Revision: 2
# Processed by: cddbd v1.5.2PL0 Copyright (c) Steve Scherf et al.
# Submitted via: BonkEnc v1.0.8
# 
DISCID=27096303
DTITLE=John Coltrane - The Complete Africa Brass
DYEAR=1961
DGENRE=Jazz
TTITLE0=Africa
TTITLE1=Africa
TTITLE2=Blues Minor
EXTD=YEAR: 1961
EXTT0=
EXTT1=
EXTT2=
PLAYORDER=
